<svg xmlns="http://www.w3.org/2000/svg" xmlns:xlink="http://www.w3.org/1999/xlink" width="500" zoomAndPan="magnify" viewBox="0 0 375 374.999991" height="500" preserveAspectRatio="xMidYMid meet" version="1.0"><defs><g/></defs><g fill="#000000" fill-opacity="1"><g transform="translate(103.376952, 85.085334)"><g><path d="M 21.628906 -27.753906 C 22.292969 -27.753906 22.652344 -28.109375 22.652344 -28.773438 L 22.652344 -33.667969 C 22.652344 -34.332031 22.292969 -34.691406 21.628906 -34.691406 L 3.570312 -34.691406 C 2.90625 -34.691406 2.550781 -34.332031 2.550781 -33.667969 L 2.550781 -28.773438 C 2.550781 -28.109375 2.90625 -27.753906 3.570312 -27.753906 L 8.136719 -27.753906 C 4.796875 -26.453125 2.550781 -22.929688 2.550781 -17.601562 L 2.550781 -1.019531 C 2.550781 -0.355469 2.90625 0 3.570312 0 L 21.628906 0 C 22.292969 0 22.652344 -0.355469 22.652344 -1.019531 L 22.652344 -5.917969 C 22.652344 -6.582031 22.292969 -6.9375 21.628906 -6.9375 L 10.203125 -6.9375 L 10.203125 -19.359375 C 11.425781 -16.425781 14.589844 -14.4375 19.386719 -14.4375 L 21.121094 -14.4375 C 21.785156 -14.4375 22.140625 -14.792969 22.140625 -15.457031 L 22.140625 -20.355469 C 22.140625 -21.019531 21.785156 -21.375 21.121094 -21.375 L 10.203125 -21.375 L 10.203125 -27.753906 Z M 21.628906 -27.753906 "/></g></g></g><g fill="#000000" fill-opacity="1"><g transform="translate(128.117612, 85.085334)"><g><path d="M 17.394531 -11.785156 L 26.578125 -21.222656 C 27.191406 -21.886719 26.9375 -22.496094 26.070312 -22.496094 L 18.570312 -22.496094 C 18.058594 -22.496094 17.652344 -22.34375 17.292969 -21.9375 L 10.101562 -13.46875 L 10.101562 -28.570312 C 10.101562 -33.824219 7.398438 -37.242188 2.449219 -38.261719 L 2.449219 -1.019531 C 2.449219 -0.355469 2.804688 0 3.46875 0 L 9.082031 0 C 9.742188 0 10.101562 -0.355469 10.101562 -1.019531 L 10.101562 -10 L 17.550781 -0.613281 C 17.855469 -0.203125 18.261719 0 18.773438 0 L 26.578125 0 C 27.445312 0 27.753906 -0.613281 27.140625 -1.273438 Z M 17.394531 -11.785156 "/></g></g></g><g fill="#000000" fill-opacity="1"><g transform="translate(156.276061, 85.085334)"><g><path d="M 14.285156 0.816406 C 22.292969 0.816406 27.089844 -4.132812 27.089844 -11.222656 C 27.089844 -18.261719 22.242188 -23.3125 14.285156 -23.3125 C 6.273438 -23.3125 1.429688 -18.261719 1.429688 -11.222656 C 1.429688 -4.183594 6.222656 0.816406 14.285156 0.816406 Z M 14.285156 -5.152344 C 10.867188 -5.152344 9.03125 -7.804688 9.03125 -11.171875 C 9.03125 -14.589844 10.917969 -17.34375 14.285156 -17.34375 C 17.652344 -17.34375 19.488281 -14.640625 19.488281 -11.171875 C 19.488281 -7.753906 17.652344 -5.152344 14.285156 -5.152344 Z M 14.285156 -5.152344 "/></g></g></g><g fill="#000000" fill-opacity="1"><g transform="translate(184.842606, 85.085334)"><g><path d="M 12.039062 0 C 24.945312 0 30.8125 -7.550781 30.8125 -17.34375 C 30.8125 -27.140625 24.894531 -34.691406 12.039062 -34.691406 L 3.773438 -34.691406 C 3.113281 -34.691406 2.753906 -34.332031 2.753906 -33.667969 L 2.753906 -1.019531 C 2.753906 -0.355469 3.113281 0 3.773438 0 Z M 10.40625 -27.753906 L 12.753906 -27.753906 C 20.203125 -27.753906 23.160156 -23.109375 23.160156 -17.34375 C 23.160156 -11.582031 20.152344 -6.9375 12.753906 -6.9375 L 10.40625 -6.9375 Z M 10.40625 -27.753906 "/></g></g></g><g fill="#000000" fill-opacity="1"><g transform="translate(217.030977, 85.085334)"><g><path d="M 5.917969 -26.9375 C 8.671875 -26.9375 11.53125 -28.3125 11.53125 -31.066406 C 11.53125 -33.773438 8.671875 -35.199219 5.917969 -35.199219 C 3.113281 -35.199219 0.304688 -33.773438 0.304688 -31.066406 C 0.304688 -28.3125 3.113281 -26.9375 5.917969 -26.9375 Z M 9.082031 0 C 9.742188 0 10.101562 -0.355469 10.101562 -1.019531 L 10.101562 -13.316406 C 10.101562 -18.570312 7.398438 -21.988281 2.449219 -23.007812 L 2.449219 -1.019531 C 2.449219 -0.355469 2.804688 0 3.46875 0 Z M 9.082031 0 "/></g></g></g><g fill="#000000" fill-opacity="1"><g transform="translate(229.273786, 85.085334)"><g><path d="M 31.476562 -23.3125 C 28.082031 -23.3125 25.609375 -22.371094 23.46875 -19.769531 C 22.011719 -22.601562 19.257812 -23.3125 16.785156 -23.3125 C 13.800781 -23.3125 10.714844 -21.808594 8.492188 -19.234375 C 7.21875 -21.171875 5.179688 -22.445312 2.449219 -23.007812 L 2.449219 -1.019531 C 2.449219 -0.355469 2.804688 0 3.46875 0 L 9.082031 0 C 9.742188 0 10.101562 -0.355469 10.101562 -1.019531 L 10.101562 -12.957031 C 10.382812 -15.585938 11.707031 -17.191406 14.027344 -17.191406 C 16.578125 -17.191406 17.445312 -15.457031 17.445312 -12.242188 L 17.445312 -1.019531 C 17.445312 -0.355469 17.804688 0 18.46875 0 L 24.078125 0 C 24.742188 0 25.097656 -0.355469 25.097656 -1.019531 L 25.097656 -12.242188 C 25.097656 -15.457031 26.273438 -17.191406 29.027344 -17.191406 C 31.78125 -17.191406 32.496094 -15.457031 32.496094 -12.242188 L 32.496094 -1.019531 C 32.496094 -0.355469 32.855469 0 33.515625 0 L 39.128906 0 C 39.792969 0 40.148438 -0.355469 40.148438 -1.019531 L 40.148438 -14.792969 C 40.148438 -19.589844 37.34375 -23.3125 31.476562 -23.3125 Z M 31.476562 -23.3125 "/></g></g></g></svg>